<svg width="665" height="400" viewBox="0 0 665 400" fill="none" xmlns="http://www.w3.org/2000/svg">
<path d="M386.48 257.76C395.44 257.76 401.87 252.72 401.87 244.4C401.87 237.05 397.74 232.99 390.33 230.13L383.75 227.61C378.71 225.65 376.33 223.62 376.33 219.07C376.33 214.52 380.6 211.44 385.99 211.44C390.54 211.44 393.55 213.47 396.14 216.55L400.27 213.19C397.61 209.41 392.5 206.4 386.21 206.4C377.6 206.4 371.03 211.37 371.03 219.13C371.03 225.92 374.32 229.76 382.02 232.7L389.36 235.5C393.91 237.25 396.57 240.19 396.57 244.53C396.57 249.64 392.09 252.72 386.57 252.72C380.55 252.72 376.56 250.06 373.77 245.65L369.36 248.8C371.58 253.77 378.22 257.76 386.48 257.76ZM336.91 257.76C348.25 257.76 356.08 250.06 356.08 237.68V207.24H350.76V237.82C350.76 247.41 345.23 252.73 336.91 252.73C328.58 252.73 323.05 247.41 323.05 237.82V207.24H317.73V237.68C317.73 250.07 325.57 257.76 336.91 257.76ZM271.8 228.93V212.21H282.09C288.39 212.21 292.02 215.08 292.02 220.61C292.02 226.14 288.38 228.94 282.09 228.94H271.8V228.93ZM266.48 256.92H271.8V233.83H277.47L297.13 256.92H304.06L284.47 233.9C292.52 233.27 297.41 228.16 297.41 220.61C297.41 212.49 291.81 207.25 282.72 207.25H266.48V256.92ZM236.88 256.92H242.2V207.24H236.88V256.92ZM193.08 256.92H197.42L218.76 207.24H212.88L195.25 248.24L177.62 207.24H171.67L193.08 256.92Z" fill="white"/>
<path d="M387.03 200.51C395.99 200.51 402.42 195.47 402.42 187.15C402.42 179.8 398.29 175.74 390.87 172.88L384.29 170.36C379.25 168.4 376.87 166.37 376.87 161.82C376.87 157.27 381.14 154.19 386.53 154.19C391.08 154.19 394.09 156.22 396.68 159.3L400.81 155.94C398.15 152.16 393.04 149.15 386.74 149.15C378.13 149.15 371.56 154.12 371.56 161.88C371.56 168.67 374.85 172.51 382.54 175.45L389.89 178.25C394.44 180 397.1 182.94 397.1 187.28C397.1 192.39 392.62 195.47 387.1 195.47C381.08 195.47 377.09 192.81 374.29 188.4L369.88 191.55C372.13 196.52 378.78 200.51 387.03 200.51ZM335.18 199.67H339.52L360.86 149.99H354.98L337.35 190.99L319.72 149.99H313.77L335.18 199.67Z" stroke="white" stroke-width="2" stroke-miterlimit="1.788"/>
<path d="M276.83 169.73V160.21H283.97C287.26 160.21 289.64 161.96 289.64 164.97C289.64 167.84 287.26 169.73 283.97 169.73H276.83V169.73ZM265.71 199.67H276.83V179.17H278.65L295.16 199.67H308.52L290.96 177.77C297.26 175.53 300.68 171.4 300.68 164.97C300.68 156.71 294.66 150 285.29 150H265.7V199.67H265.71ZM237.79 199.67H248.92V149.99H237.79V199.67ZM170.4 199.67H180.4L190.34 166.92L200.2 199.67H210.28L225.74 149.99H213.85L204.82 181.69L195.16 149.99H185.38L175.72 181.55L166.69 149.99H154.94L170.4 199.67Z" fill="white"/>
<path d="M516.59 71.5702C519.4 71.6502 522.06 72.8302 524.02 74.8402C587.16 137.98 587.16 240.69 524.02 303.83C460.88 366.97 358.17 366.97 295.03 303.83C290.74 299.67 290.64 292.83 294.8 288.55C298.96 284.26 305.8 284.16 310.08 288.32C310.16 288.4 310.23 288.47 310.31 288.55C365.19 343.43 453.85 343.43 508.74 288.55C563.62 233.67 563.62 145.01 508.74 90.1202C504.46 85.9602 504.36 79.1202 508.52 74.8402C510.63 72.6702 513.56 71.4802 516.59 71.5702Z" fill="black"/>
<path d="M409.53 49.01C459.59 49.01 506 75.76 531 119.17C556.08 162.57 556.08 216.1 531 259.5C506 302.91 459.59 329.66 409.53 329.66C403.56 329.75 398.65 324.99 398.56 319.02C398.47 313.05 403.23 308.14 409.2 308.05C409.31 308.05 409.42 308.05 409.54 308.05C451.92 308.05 491.15 285.43 512.29 248.7V248.69L512.3 248.68C533.53 211.94 533.53 166.71 512.3 129.98L512.29 129.97V129.96C491.15 93.24 451.92 70.61 409.54 70.61C403.57 70.7 398.66 65.94 398.57 59.97C398.48 54 403.24 49.09 409.21 49C409.3 49.01 409.41 49.01 409.53 49.01Z" fill="#DE0000"/>
<path d="M409.53 70.7197C439.94 70.7197 470.36 82.2997 493.51 105.45C539.74 151.68 539.73 227.02 493.52 273.32C489.35 277.59 482.5 277.66 478.24 273.48C473.97 269.31 473.9 262.46 478.08 258.2C478.13 258.15 478.18 258.1 478.23 258.05C516.2 220.01 516.2 158.69 478.24 120.73C440.19 82.6797 378.9 82.6797 340.85 120.73C336.69 125.01 329.85 125.11 325.57 120.96C321.29 116.81 321.19 109.96 325.34 105.68C325.42 105.6 325.49 105.53 325.57 105.45C348.7 82.2897 379.11 70.7197 409.53 70.7197Z" fill="#FFCF00"/>
<path d="M113.34 196.67H126.44L122.48 209.15H109.38L113.34 196.67ZM131.96 179L127.73 192.37H114.64L118.8 179H114.23L110.07 192.37H99.97V196.67H108.7L104.75 209.15H95V213.45H103.46L99.08 227.43H103.72L108.01 213.45H121.18L116.82 227.43H121.39L125.69 213.45H135.92V209.15H127.05L131.01 196.67H140.83V192.37H132.31L136.47 179H131.96Z" fill="white"/>
</svg>
